HIERARCHY
ROOT Hips
{
	OFFSET 0.000000 88.474243 0.000000
	CHANNELS 6 Xposition Yposition Zposition Zrotation Yrotation Xrotation 
	JOINT Hips_Spine
	{
		OFFSET 0.000000 0.000000 0.000000
		CHANNELS 3 Zrotation Yrotation Xrotation
		JOINT Spine
		{
			OFFSET 0.005100 8.711998 -0.691000
			CHANNELS 3 Zrotation Yrotation Xrotation
			JOINT Spine1
			{
				OFFSET -0.009200 8.660301 -1.275000
				CHANNELS 3 Zrotation Yrotation Xrotation
				JOINT Spine2
				{
					OFFSET 0.006300 9.852501 -1.857000
					CHANNELS 3 Zrotation Yrotation Xrotation
					JOINT Spine2_Neck
					{
						OFFSET 0.000000 0.000000 0.000000
						CHANNELS 3 Zrotation Yrotation Xrotation
						JOINT Neck
						{
							OFFSET 0.016300 11.420799 -0.263300
							CHANNELS 3 Zrotation Yrotation Xrotation
							End Site #name: Head
							{
								OFFSET -0.019200 9.262405 2.362500
							}
						}
					}
					JOINT Spine2_LeftShoulder
					{
						OFFSET 0.000000 0.000000 0.000000
						CHANNELS 3 Zrotation Yrotation Xrotation
						JOINT LeftShoulder
						{
							OFFSET 5.616900 6.732201 -0.345700
							CHANNELS 3 Zrotation Yrotation Xrotation
							JOINT LeftArm
							{
								OFFSET 10.664888 -0.183372 -2.440700
								CHANNELS 3 Zrotation Yrotation Xrotation
								JOINT LeftForeArm
								{
									OFFSET 27.459126 0.000000 0.000000
									CHANNELS 3 Zrotation Yrotation Xrotation
									End Site #name: LeftHand
									{
										OFFSET 21.306858 0.000000 0.000000
									}
								}
							}
						}
					}
					JOINT Spine2_RightShoulder
					{
						OFFSET 0.000000 0.000000 0.000000
						CHANNELS 3 Zrotation Yrotation Xrotation
						JOINT RightShoulder
						{
							OFFSET -5.580300 6.737503 -0.344400
							CHANNELS 3 Zrotation Yrotation Xrotation
							JOINT RightArm
							{
								OFFSET -10.679335 -0.188484 -2.383900
								CHANNELS 3 Zrotation Yrotation Xrotation
								JOINT RightForeArm
								{
									OFFSET -27.503529 0.000000 0.000000
									CHANNELS 3 Zrotation Yrotation Xrotation
									End Site #name: RightHand
									{
										OFFSET -21.306808 0.000000 0.000000
									}
								}
							}
						}
					}
				}
			}
		}
	}
	JOINT Hips_LeftUpLeg
	{
		OFFSET 0.000000 0.000000 0.000000
		CHANNELS 3 Zrotation Yrotation Xrotation
		JOINT LeftUpLeg
		{
			OFFSET 6.857700 -6.739601 0.312100
			CHANNELS 3 Zrotation Yrotation Xrotation
			JOINT LeftLeg
			{
				OFFSET -0.367590 -34.731552 -4.572400
				CHANNELS 3 Zrotation Yrotation Xrotation
				End Site #name: LeftFoot
				{
					OFFSET 0.367590 -34.656704 -6.067400
				}
			}
		}
	}
	JOINT Hips_RightUpLeg
	{
		OFFSET 0.000000 0.000000 0.000000
		CHANNELS 3 Zrotation Yrotation Xrotation
		JOINT RightUpLeg
		{
			OFFSET -6.876100 -6.733299 0.301000
			CHANNELS 3 Zrotation Yrotation Xrotation
			JOINT RightLeg
			{
				OFFSET 0.347353 -34.795158 -4.515900
				CHANNELS 3 Zrotation Yrotation Xrotation
				End Site #name: RightFoot
				{
					OFFSET -0.347353 -34.589367 -6.070300
				}
			}
		}
	}
}
MOTION
Frames: 14
Frame Time: 0.041667
0.164267 0.051782 -0.015961 0.184077 28.185778 -6.514617 -0.000000 0.000000 0.000000 -1.180768 -1.686660 1.234867 -0.294361 -1.661608 0.020572 0.000000 0.000000 0.000000 -0.368027 -1.023665 -1.115249 3.565901 -0.037084 -4.377552 0.015833 -1.905017 -1.773199 -16.125259 -7.674530 1.595702 -46.158386 0.864205 10.596204 0.152867 -30.982362 6.673505 -0.503111 -1.157611 0.224696 14.633364 11.575888 3.945246 56.738608 -3.991820 -4.947570 -0.490437 51.723510 0.677121 0.000000 0.000000 0.000000 -9.772061 16.261572 -6.217286 -0.830815 -0.698334 23.869032 0.000000 0.000000 0.000000 -3.998922 12.476557 -7.569540 5.822668 3.202606 -1.337792 
0.724699 -0.020240 0.166683 1.923229 31.230447 -6.824851 -0.000000 0.000000 0.000000 -3.958939 -2.757194 0.704841 -0.018156 -1.532758 -0.291238 0.000000 0.000000 0.000000 -0.415924 -1.074900 -1.795020 4.356180 -1.455023 -3.537802 -0.596702 -1.595059 -2.356471 -21.198461 -4.294765 0.112657 -43.682642 0.966963 1.447298 -0.446965 -24.260206 4.664092 -0.418209 -1.426000 -0.385034 14.969196 8.656764 1.695118 58.508369 -0.196909 -3.980853 -0.581789 51.790465 -0.860075 0.000000 0.000000 -0.000000 -12.328716 14.107195 -3.439077 -0.283685 2.575520 21.916258 0.000000 0.000000 0.000000 -7.660086 13.457097 -7.220503 5.865480 4.007445 0.223427 
1.063012 -0.055955 0.232682 3.363167 30.889450 -6.790637 -0.000000 0.000000 0.000000 -5.396234 -3.795714 1.141009 -0.086600 -1.186289 -0.449345 0.000000 0.000000 0.000000 0.107611 -1.401320 -1.943717 3.593574 -2.135786 -4.773687 -0.703216 -1.423410 -2.234739 -24.741146 -4.098535 1.300107 -44.602570 7.645198 -2.971361 -0.917641 -25.222068 4.527764 -0.338364 -1.376318 -0.408218 14.049110 7.786386 1.876221 57.315677 2.025581 -1.630510 -0.279775 46.117053 -0.776139 0.000000 0.000000 -0.000000 -14.177558 13.743994 -1.607694 -0.893709 2.962590 20.542216 0.000000 0.000000 0.000000 -9.559534 13.859866 -9.108851 5.738442 3.422254 5.027958 
1.393438 -0.108558 0.235648 4.137114 29.804271 -6.470133 -0.000000 0.000000 -0.000000 -6.198040 -3.114056 1.913956 -0.024137 -0.966253 -0.466358 0.000000 0.000000 0.000000 0.321153 -1.468255 -1.874542 3.594764 -3.362146 -4.453681 -0.587756 -1.433142 -2.093672 -26.649582 -3.712897 2.269840 -43.447507 8.416380 -1.932049 -0.508773 -24.672099 6.618241 -0.160574 -1.282268 -0.345302 12.993400 7.623760 1.809759 56.839464 5.576638 -0.828510 -0.114163 46.772561 -0.684427 0.000000 0.000000 -0.000000 -15.303358 13.704159 -1.251410 -1.139660 3.471281 20.076157 0.000000 0.000000 0.000000 -10.866799 13.010074 -11.697955 5.599521 4.030121 11.074688 
1.771942 -0.139119 0.212825 4.589050 29.247790 -5.948997 -0.000000 0.000000 -0.000000 -6.854498 -2.267926 1.816603 -0.096366 -0.890348 -0.364227 0.000000 0.000000 0.000000 0.202823 -1.483163 -1.908882 3.492375 -4.352678 -3.679499 -0.571364 -1.499039 -1.918752 -29.234721 -2.843897 3.143608 -40.039435 7.938183 -1.238556 0.164476 -20.402225 8.595948 -0.159705 -1.193312 -0.206401 11.779251 7.566989 1.661145 57.732441 6.933449 -0.973053 -0.076753 46.899862 -0.750040 0.000000 0.000000 -0.000000 -16.190307 13.870989 -1.187567 -1.255528 3.624020 19.616356 0.000000 0.000000 0.000000 -12.008396 11.735486 -13.658819 5.689802 5.175600 15.776805 
2.171427 -0.151624 0.162198 4.812784 29.102071 -5.570606 -0.000000 0.000000 -0.000000 -7.301147 -1.798952 1.355865 -0.193445 -0.862115 -0.354483 0.000000 0.000000 0.000000 -0.013341 -1.477999 -1.908467 3.097560 -4.928599 -2.787694 -0.659012 -1.497814 -1.810341 -31.475733 -2.052455 3.595267 -37.118894 6.955113 -0.059219 0.727680 -15.898183 9.785551 -0.251195 -1.153392 -0.162472 10.479280 7.620126 1.524312 59.089364 6.801711 -1.507442 0.072391 45.932300 -0.740733 0.000000 0.000000 -0.000000 -16.820635 14.186003 -1.157991 -1.187120 3.631865 19.132653 0.000000 0.000000 0.000000 -12.849079 10.582207 -14.645056 6.054845 6.819011 18.607043 
2.572312 -0.149850 0.099811 4.794820 29.443813 -5.366233 -0.000000 0.000000 -0.000000 -7.495764 -1.506446 0.890292 -0.369986 -0.798487 -0.405049 0.000000 0.000000 0.000000 -0.246365 -1.452576 -1.899891 2.721269 -5.191238 -2.193962 -0.827763 -1.451548 -1.824194 -33.262351 -1.211795 3.735037 -34.699880 6.399120 0.990062 1.102687 -11.741769 10.263533 -0.458504 -1.100611 -0.199561 9.852224 7.509040 1.420369 60.549968 5.496710 -2.492494 0.273371 44.504081 -0.689248 0.000000 0.000000 -0.000000 -17.196231 14.377249 -1.300215 -1.221770 3.544786 18.908322 0.000000 0.000000 0.000000 -13.433720 9.522939 -14.919891 6.317567 8.198428 20.299394 
2.953918 -0.138152 0.044837 4.602118 30.285396 -5.255775 -0.000000 0.000000 -0.000000 -7.623579 -1.275798 0.459541 -0.565486 -0.687697 -0.537218 0.000000 0.000000 0.000000 -0.488826 -1.412037 -2.002599 2.284185 -5.365251 -1.684398 -1.032689 -1.393565 -1.964831 -34.650010 -0.495332 3.667039 -33.024178 6.169769 1.550530 1.216517 -8.880971 10.029306 -0.707826 -1.021256 -0.272586 9.612081 7.334373 1.374296 61.821454 3.937162 -3.140170 0.476785 43.289592 -0.651836 0.000000 0.000000 -0.000000 -17.315343 14.344143 -1.615059 -1.202029 3.511990 18.994509 0.000000 0.000000 0.000000 -13.753110 8.322479 -14.736099 6.328255 9.245360 21.216732 
3.294220 -0.118345 0.010052 4.267755 31.426452 -5.222410 -0.000000 0.000000 -0.000000 -7.748167 -1.015191 0.171388 -0.736161 -0.566581 -0.700425 0.000000 0.000000 0.000000 -0.682493 -1.357344 -2.149156 1.967087 -5.356803 -1.274662 -1.221921 -1.338411 -2.168817 -35.567525 0.029594 3.568946 -32.042630 6.090318 1.714818 1.105588 -7.702128 9.453156 -1.015877 -0.882528 -0.374686 9.568732 7.115830 1.344332 62.749530 2.490531 -3.613801 0.628341 42.271342 -0.618765 0.000000 0.000000 -0.000000 -17.237934 14.219492 -2.034273 -1.094465 3.508610 19.324764 0.000000 0.000000 0.000000 -13.817069 6.826398 -14.302950 6.150913 10.124404 21.659828 
3.588350 -0.094480 -0.009741 3.896196 32.492776 -5.187246 -0.000000 0.000000 -0.000000 -7.942354 -0.737848 0.017469 -0.879879 -0.428293 -0.889532 0.000000 0.000000 0.000000 -0.854612 -1.295375 -2.307224 1.876572 -5.127377 -1.057461 -1.378698 -1.268984 -2.357769 -36.011328 0.371577 3.505459 -31.707148 6.207920 1.600134 0.949044 -7.537490 8.889147 -1.283023 -0.737186 -0.469294 9.429795 6.970011 1.289441 63.336852 1.673170 -3.677798 0.735844 41.463867 -0.579706 0.000000 0.000000 -0.000000 -17.033691 14.066369 -2.503978 -0.924354 3.595682 19.763061 0.000000 0.000000 0.000000 -13.651746 5.148046 -13.811061 5.974278 10.979478 21.764127 
3.830462 -0.067168 -0.019668 3.528364 33.306280 -5.159066 -0.000000 0.000000 -0.000000 -8.275168 -0.468056 0.058947 -0.977981 -0.306116 -1.043321 0.000000 0.000000 0.000000 -0.998297 -1.229706 -2.423427 1.968194 -4.813223 -1.054800 -1.494661 -1.186606 -2.484727 -36.041790 0.604118 3.430843 -31.779484 6.230146 1.253750 0.820918 -8.092957 8.502593 -1.493950 -0.611304 -0.524063 9.272885 6.921730 1.249044 63.597932 1.402986 -3.397292 0.811357 40.818482 -0.551257 0.000000 0.000000 -0.000000 -16.789126 13.971437 -2.901794 -0.744066 3.713538 20.098001 0.000000 0.000000 0.000000 -13.436216 3.569635 -13.300398 5.820652 11.673811 21.411105 
4.013562 -0.035430 -0.023467 3.238930 33.564218 -5.114490 -0.000000 0.000000 -0.000000 -8.675986 -0.274657 0.223090 -1.024635 -0.215442 -1.143178 0.000000 0.000000 0.000000 -1.126978 -1.165390 -2.503857 2.128613 -4.533009 -1.192579 -1.579861 -1.102348 -2.562810 -35.805055 0.777364 3.399006 -32.105552 5.972337 0.995955 0.768037 -8.928700 8.359539 -1.659244 -0.497975 -0.538414 9.149668 6.888188 1.218519 63.553382 1.546928 -3.237112 0.837156 40.641285 -0.536753 0.000000 0.000000 -0.000000 -16.541075 13.947809 -3.205626 -0.622538 3.879163 20.282261 0.000000 0.000000 0.000000 -13.235379 2.274131 -12.811451 5.509701 11.860275 20.701451 
4.131038 0.003181 -0.019730 3.020721 33.491421 -5.044940 -0.000000 0.000000 -0.000000 -9.064416 -0.137848 0.424192 -1.063427 -0.150691 -1.217483 0.000000 0.000000 0.000000 -1.243255 -1.109376 -2.558296 2.360386 -4.252396 -1.444296 -1.650130 -1.032889 -2.597251 -35.420833 0.904817 3.416343 -32.502185 5.466989 1.000089 0.759320 -9.783623 8.384567 -1.797398 -0.398315 -0.535005 9.093313 6.892126 1.195580 63.319017 1.906743 -3.040835 0.822320 40.740166 -0.529872 0.000000 0.000000 -0.000000 -16.332890 13.981825 -3.419717 -0.566313 4.031666 20.324283 0.000000 0.000000 0.000000 -13.021968 1.316895 -12.410773 5.177643 11.950144 19.775690 
4.191493 0.045826 -0.009941 2.880338 33.135693 -4.948275 -0.000000 0.000000 -0.000000 -9.374506 -0.080388 0.633003 -1.087788 -0.113066 -1.300543 0.000000 0.000000 0.000000 -1.338322 -1.079775 -2.610116 2.637073 -4.073690 -1.739221 -1.700655 -0.991629 -2.627255 -34.929856 0.965549 3.515340 -32.925675 4.840259 1.264928 0.763365 -10.542842 8.468668 -1.893463 -0.333833 -0.536805 9.054796 6.879869 1.172206 62.933994 2.330950 -3.061809 0.786909 41.004908 -0.527677 0.000000 0.000000 -0.000000 -16.176005 14.102482 -3.570326 -0.575633 4.125460 20.282161 0.000000 0.000000 0.000000 -12.808012 0.596983 -12.170319 4.879720 12.067356 18.877663 
